<svg id="Layer_1" data-name="Layer 1" xmlns="http://www.w3.org/2000/svg" viewBox="0 0 217.3 329.03"><defs><style>.cls-1{fill:#f8e71c;}</style></defs><title>Artboard 1</title><path class="cls-1" d="M175.1,121.23H79.44c-.14-13.71,0-27.55.06-41.86h98.11a39.69,39.69,0,1,0,0-79.37H60.51C39.11,0,25.44,8.89,17.75,16.35,3.41,30.25.33,47.53.26,59.59c0,5.67-.07,11.33-.11,17C0,100.08-.22,124.37.67,148.66c.12,3.52,0,7.51-.13,11.73-.1,3.11-.2,6.32-.22,9.74C.16,199.55.18,229.4.2,258.27q0,15.35,0,30.7a39.69,39.69,0,1,0,79.37,0q0-15.37,0-30.76c0-18.93,0-38.28,0-57.61H175.1a39.69,39.69,0,1,0,0-79.37Z"/></svg>