<svg id="Layer_1" data-name="Layer 1" xmlns="http://www.w3.org/2000/svg" xmlns:xlink="http://www.w3.org/1999/xlink" viewBox="0 0 217.3 329.03"><defs><style>.cls-1{fill:#fff;}.cls-2{fill:url(#ñ_èÃñ_ê_íËÉOÉâÉfÅ_ÉVÉáÉì_164);}.cls-3{fill:url(#ñ_èÃñ_ê_íËÉOÉâÉfÅ_ÉVÉáÉì_167);}.cls-4{fill:#faf2e6;}.cls-5{mask:url(#mask);}.cls-6{fill:#ffd7be;}.cls-7{fill:#66db4f;}.cls-8{fill:#b5af88;}.cls-9{fill:#36c96f;}.cls-10{fill:#85e272;}.cls-11{fill:#5d6269;}.cls-12{fill:#83b3e5;}.cls-13{fill:#c7ddf4;}.cls-14{mask:url(#mask-2);}.cls-15{fill:#704428;}.cls-16{mask:url(#mask-3);}.cls-17{fill:#ffbba6;}.cls-18{mask:url(#mask-4);}.cls-19,.cls-25,.cls-26,.cls-28,.cls-29,.cls-30,.cls-32{fill:none;}.cls-19,.cls-32{stroke:#b88886;}.cls-19,.cls-25,.cls-26,.cls-29,.cls-30,.cls-32{stroke-linecap:round;stroke-linejoin:round;}.cls-19{stroke-width:1.35px;}.cls-20{fill:#8d6953;}.cls-21{fill:#231815;}.cls-22{fill:#93694f;}.cls-23{fill:#ed7987;}.cls-24{fill:#cc4822;}.cls-25,.cls-26,.cls-29,.cls-30{stroke:#6d8da8;}.cls-25,.cls-26{stroke-width:1px;}.cls-26{stroke-dasharray:0 1.67;}.cls-27{clip-path:url(#clip-path);}.cls-28{stroke:#5bdec4;stroke-width:1.7px;}.cls-29,.cls-30{stroke-width:0.85px;}.cls-30{stroke-dasharray:0 1.45;}.cls-31{fill:#f8e71c;}.cls-32{stroke-width:1px;}</style><radialGradient id="ñ_èÃñ_ê_íËÉOÉâÉfÅ_ÉVÉáÉì_164" cx="-305.91" cy="-10047.49" fy="-10054.902015335227" r="9" gradientTransform="matrix(0, 1.65, -1, 0, -9882.18, 640.16)" gradientUnits="userSpaceOnUse"><stop offset="0" stop-color="#fff"/><stop offset="0.09" stop-color="#f8f8f8"/><stop offset="0.22" stop-color="#e5e5e5"/><stop offset="0.37" stop-color="#c5c5c5"/><stop offset="0.54" stop-color="#9a9a9a"/><stop offset="0.72" stop-color="#616161"/><stop offset="0.92" stop-color="#1e1e1e"/><stop offset="1"/></radialGradient><radialGradient id="ñ_èÃñ_ê_íËÉOÉâÉfÅ_ÉVÉáÉì_167" cx="11596.72" cy="-8291.61" fy="-8298.915330983267" r="9" gradientTransform="matrix(-1.19, -0.43, -0.33, 0.91, 11158.77, 12674.19)" gradientUnits="userSpaceOnUse"><stop offset="0" stop-color="#fff"/><stop offset="0.09" stop-color="#f8f8f8"/><stop offset="0.22" stop-color="#e6e6e6"/><stop offset="0.37" stop-color="#c7c7c7"/><stop offset="0.53" stop-color="#9d9d9d"/><stop offset="0.71" stop-color="#676767"/><stop offset="0.9" stop-color="#262626"/><stop offset="1"/></radialGradient><mask id="mask" x="150.7" y="287.97" width="32.14" height="44.3" maskUnits="userSpaceOnUse"><path class="cls-1" d="M167.06,288s-4,16.25-4.89,18.65S150.7,324,150.7,324l10.7,8.3,21.43-23-14.5-14.22Z"/></mask><mask id="mask-2" x="133.63" y="288.86" width="30.18" height="42.68" maskUnits="userSpaceOnUse"><path class="cls-1" d="M149.53,288.86s-3.52,16.07-4.43,18.47-11.47,17.35-11.47,17.35l8.09,6.87L163.81,309l-12.55-13.23Z"/></mask><mask id="mask-3" x="150.53" y="125.59" width="29.71" height="18.13" maskUnits="userSpaceOnUse"><ellipse class="cls-2" cx="165.39" cy="134.65" rx="9" ry="14.89" transform="translate(16.83 287.68) rotate(-85)"/></mask><mask id="mask-4" x="97.37" y="109.48" width="22.24" height="18.13" maskUnits="userSpaceOnUse"><path class="cls-3" d="M97.78,114.65c-1.64,4.52,1.82,9.93,7.73,12.08s12,.24,13.69-4.28-1.82-9.93-7.73-12.09S99.43,110.13,97.78,114.65Z"/></mask><clipPath id="clip-path"><path id="SVGID" class="cls-4" d="M127.44,186.51a7.4,7.4,0,0,1-.16,4.09l-3.43,13.59L123,217.51h36.65l-.86-13.32-3.43-13.6a7.36,7.36,0,0,1-.16-4.08l1.68-9.92a14,14,0,0,0-.06-5.51l-1.34-5.29-1.34-5.3a3.85,3.85,0,0,0-3.53-2.75,46.81,46.81,0,0,0-18.57,0,3.84,3.84,0,0,0-3.53,2.75l-1.34,5.3-1.34,5.29a14.19,14.19,0,0,0-.07,5.51Z"/></clipPath></defs><title>Artboard 1</title><g class="cls-5"><path class="cls-6" d="M162.15,313.27c.62-1.44,2.66-4.56,1-8.08-.48-1.06-4.41-8-3.26-8.93,1.39-1.17,5.57,1.76,8.29,4.11,1.12,1,4,4,5,5Z"/><path class="cls-7" d="M163.08,320.4l-3.5-2.16a10.73,10.73,0,0,1-1.91,3,8.83,8.83,0,0,0-.64.92A5.4,5.4,0,0,0,163.08,320.4Z"/><path class="cls-7" d="M172.88,306.74l-7.42,2.86a25.22,25.22,0,0,1-2.05,8.29L166.2,319l9.21-8.75C174.54,307.39,172.88,306.74,172.88,306.74Z"/><path class="cls-8" d="M158,326.75l1.27,1.33,19.3-18.32-1.26-1.33Z"/><path class="cls-1" d="M162.64,317l-2.12-1.21c-.17.42-.34.88-.52,1.34l2.07,1.18Z"/><path class="cls-1" d="M163.41,314.45l-2-1.13c-.11.33-.28.79-.49,1.36l1.9,1.08Z"/><path class="cls-1" d="M164.1,311.81l-1.9-1.08a9.48,9.48,0,0,1-.36,1.44l1.68.95Z"/><path class="cls-9" d="M167.1,306.37c-2.12.13-4.47-.3-4.69,1.6l-.08,1.75c0,.34-.07.68-.13,1l1.9,1.08-.58,1.31-1.68-.95c-.08.23-.15.46-.25.68,0,0-.06.18-.17.47l2,1.13-.58,1.31-1.9-1.08c-.12.35-.26.72-.41,1.13l2.12,1.21-.57,1.31L160,317.15c-.13.36-.28.73-.42,1.09l3.5,2.16a5.4,5.4,0,0,1-6.05,1.74c-.47,1.33-1,2.45.37,3.94l.63.67L166.2,319l-2.79-1.11a17.45,17.45,0,0,0,2.45-7.88l7-3.27s1.66.65,2.53,3.51l1.93-1.82L175,305.91c-.9-1-1.47-2-2.53-1.85C171,304.94,168.82,306.38,167.1,306.37Z"/><path class="cls-10" d="M164.19,310.73s.28-3.81-.35-4.67-1.6-.13-2,.45.42,2.24.43,3.2Z"/></g><path class="cls-6" d="M149.2,214.36a6.93,6.93,0,0,1,7.43,4.41l1.41,13,.7,6.49.74,6.41c.86,7.23,1.86,14.48,3,21.7.55,3.61,1.12,7.22,1.73,10.8s1.28,7.11,2,10.74l2.76,13.93a3,3,0,0,1-2.2,3.44l-.69.17a3,3,0,0,1-3.53-2.06l-3.89-13.66c-1-3.5-2-7.16-2.94-10.74s-1.81-7.19-2.67-10.79q-2.55-10.8-4.82-21.69L147,240.14l-1.2-6.28-2.4-12.55A7,7,0,0,1,149.2,214.36Z"/><path class="cls-11" d="M166.49,289.53l-7.4,1.79-.47-1.62c-1-3.5-2-7.16-2.94-10.74s-1.81-7.19-2.67-10.79q-2.55-10.8-4.82-21.69L147,240.22l11.81-1.77.71,6.19c.87,7.23,1.87,14.48,3,21.7.55,3.61,1.12,7.22,1.73,10.8s1.28,7.11,2,10.74Z"/><path class="cls-12" d="M156.63,218.77l3.43,19.49-14.39,2.15-2.32-19.1a6.85,6.85,0,0,1,13.28-2.54Z"/><polygon class="cls-13" points="144.85 241.72 161.25 239.25 160.59 234.85 144.18 237.31 144.85 241.72"/><g class="cls-14"><path class="cls-6" d="M145,314.22c.61-1.44,2.66-4.56,1-8.08-.49-1.05-4.41-7.95-3.27-8.92,1.39-1.17,5.58,1.76,8.29,4.1,1.13,1,4,4,5,5Z"/><path class="cls-7" d="M146,321.35l-3.51-2.15a10.76,10.76,0,0,1-1.9,3,10.55,10.55,0,0,0-.65.91A5.4,5.4,0,0,0,146,321.35Z"/><path class="cls-7" d="M155.75,307.69l-7.42,2.86a25.19,25.19,0,0,1-2.06,8.3l2.8,1.1,9.21-8.74C157.41,308.35,155.75,307.69,155.75,307.69Z"/><path class="cls-8" d="M140.9,327.7l1.26,1.33,19.31-18.32-1.26-1.33Z"/><path class="cls-1" d="M145.51,318l-2.13-1.21-.51,1.35,2.06,1.17Z"/><path class="cls-1" d="M146.27,315.41l-2-1.13c-.12.32-.28.79-.49,1.36l1.89,1.08Z"/><path class="cls-1" d="M147,312.77l-1.89-1.08a10.31,10.31,0,0,1-.36,1.43l1.67.95Z"/><path class="cls-9" d="M150,307.32c-2.11.13-4.47-.29-4.68,1.6l-.08,1.75c0,.35-.08.69-.13,1l1.89,1.08-.58,1.3-1.67-.95c-.08.23-.16.46-.25.68,0,0-.07.18-.17.48l2,1.13-.58,1.31-1.89-1.08-.42,1.12,2.13,1.21-.58,1.31-2.06-1.17c-.14.36-.28.72-.43,1.09l3.51,2.15a5.4,5.4,0,0,1-6.06,1.74c-.46,1.33-1,2.46.38,3.94l.63.67,8.17-7.75-2.8-1.1a17.36,17.36,0,0,0,2.45-7.88l7-3.28s1.66.66,2.53,3.52l1.93-1.83-2.4-2.52c-.9-.95-1.46-2-2.53-1.85C153.83,305.9,151.69,307.34,150,307.32Z"/><path class="cls-10" d="M147.06,311.69s.28-3.81-.36-4.68-1.59-.12-1.94.45.41,2.24.43,3.21Z"/></g><path class="cls-6" d="M131.45,215.43a7.09,7.09,0,0,1,7,5c.27,8.48.89,17,1.93,25.45,1,7.39,2.12,14.93,3.51,22.29s3.12,14.66,5,22c1.18,4.57,2.38,9.18,3.51,13.8a3,3,0,0,1-2.05,3.54l-.69.19a3,3,0,0,1-3.61-1.9c-1.49-4.47-3-8.91-4.59-13.39-2.51-7.22-4.93-14.63-7-22.11q-1.53-5.61-2.87-11.25c-.9-3.76-1.75-7.48-2.56-11.33-1.76-8.54-3.1-17.12-4.1-25.79A6.87,6.87,0,0,1,131.45,215.43Z"/><path class="cls-11" d="M149.34,291.8l-7.29,2.2-.56-1.59c-2.51-7.22-4.93-14.63-7-22.11q-1.53-5.61-2.87-11.25c-.91-3.76-1.75-7.48-2.56-11.33-.43-2.11-.85-4.22-1.23-6.33l11.82-1.67q.31,3.08.69,6.13c1,7.39,2.11,14.93,3.5,22.29s3.12,14.66,5,22Z"/><path class="cls-12" d="M138.45,220.4c.63,6.4,1.49,12.81,2.54,19.14l-14.4,2q-1.11-9.81-1.58-19.64a6.87,6.87,0,0,1,6.44-6.5A7.09,7.09,0,0,1,138.45,220.4Z"/><polygon class="cls-13" points="125.76 242.9 142.18 240.51 141.59 236.23 125.13 238.35 125.76 242.9"/><g id="_Group_" data-name="&lt;Group&gt;"><g id="êVãKÉVÉìÉ_Éã_49_252_" data-name="êVãKÉVÉìÉ{Éã_49_252_"><path class="cls-15" d="M202.75,144.08c1.13-2.06,2.36-4,3.52-5.91a64.79,64.79,0,0,0,8.95-25.06c4.47-32.74-4.51-50.3-4.51-50.3-7.06-9.66-15.39-2.33-27.6,2.38-8.68-.66-18-.1-26-.88-9.15-.9-18.32-1.43-27.5-2.08C119.21,51,110,43.19,107.54,45.1a125.15,125.15,0,0,0-19,35.31,101.69,101.69,0,0,0-4.69,24.87c-.47,7.06.79,15.59-3.28,21.8a.44.44,0,0,0,.46.68,27.53,27.53,0,0,0,3.5-1c1.51,3.69,3.61,5.7,3.46,10.73,2-1.56,2-2,3.24-4.51-.63,3.87,3.59,7.28,6.16,8.26a21.06,21.06,0,0,0,.22-3.39c.1,2.18,6.25,3.37,7.92,3.86a58.67,58.67,0,0,0,9.2,1.8c3.19.4,8.43,0,11.29,1.42,5,2.54,12.58,4.34,20.12,5.86,4.2.85,8.58,3.77,12.82,5.14,2.73.88,9.41,3.27,12.1,1.58a35.29,35.29,0,0,1-3.08,1.75c2.85.76,11.18,3.27,14.54-1.14l.29.11a14.88,14.88,0,0,0-.06,3.77,19.12,19.12,0,0,0,3.75-4.34c1.56,4.06,4.41,4.22,4.41,4.22a15.58,15.58,0,0,1,0-4.92c.44,2.5,4,3.36,6.26,5.21a.84.84,0,0,0,1.37-.79C197.49,155.36,199.81,149.44,202.75,144.08Z"/><path class="cls-15" d="M89.36,96.52s4.24-47.59,34.21-65.44c16.22-9.65,31.18-9.87,40.74-1.82,0,0,14.79-7.06,33.53,11.43,13.92,13.74,19.65,38.74,13.37,61.49Z"/><path class="cls-15" d="M129.84,34.6c-27.37-1-42.31,41.6-34.13,62.65,4.23-6.41,47.24-47.11,33.56-57Z"/><path class="cls-6" d="M202.24,106.43C206.31,76,181.5,45,152.09,43.39c-38.64-2.81-70,48.67-52,81.78C111,145.23,136.59,154.1,157.16,151S198.4,135.11,202.24,106.43Z"/><g class="cls-16"><ellipse class="cls-17" cx="165.39" cy="134.65" rx="9" ry="14.89" transform="translate(16.83 287.68) rotate(-85)"/></g><g class="cls-18"><path class="cls-17" d="M97.78,114.65c-1.64,4.52,1.82,9.93,7.73,12.08s12,.24,13.69-4.28-1.82-9.93-7.73-12.09S99.43,110.13,97.78,114.65Z"/></g><path class="cls-19" d="M134.76,112.76c-2.71-.48-5.07,1.35-4.51,4.83"/><path class="cls-15" d="M155.74,34.24c14.82-.21,32.9,2.12,41.51,11.57,15.35,16.86,20.6,55.46,5.61,71.46l-8,2.69c1.15-10.73-.63-24.67-4.08-36.29Z"/><path class="cls-6" d="M187.12,124.94c3.43-10,17.37-15.1,21.65-5.73,7.38,16.13-13,25.07-22.22,21.92C178.63,138.41,186,128.25,187.12,124.94Z"/><path class="cls-15" d="M195.05,80.42c1.21-4.51-13.47-30.54-33.3-39s-44.16,4-52.19,15.73S100,85.38,100,85.38c2.6-1.69,7.33-2.8,15.1-2.33a38.88,38.88,0,0,1,5.35-11.55,54.53,54.53,0,0,0-4.52,11.61l1.4.12a55,55,0,0,1,13.08-21.37s-8.84,11.4-10.71,21.62c1.35.16,2.77.37,4.25.62a39,39,0,0,1,5.18-12.72,53,53,0,0,0-4.32,12.86A174,174,0,0,1,144.2,88.9c6.47,1.91,12.36,4,17.62,6.08a64,64,0,0,0,2.64-14.7,45.53,45.53,0,0,1-1.73,15.06c17.28,7,27.39,13.78,27.39,13.78A98.4,98.4,0,0,0,195.05,80.42Z"/><path class="cls-20" d="M142.78,46.74a1.53,1.53,0,0,0-.21-1,1.82,1.82,0,0,0-.59-.51,6.09,6.09,0,0,0-6.33.29,7.77,7.77,0,0,0,1.34-2.7,1.07,1.07,0,0,0,0-.75c-.23-.42-.84-.39-1.31-.28a22.9,22.9,0,0,0-4.53,1.63,15.82,15.82,0,0,0,3.73-5.33,1.21,1.21,0,0,0,.12-.94c-.17-.39-.66-.52-1.09-.58-6.31-.85-12.23,2.89-17.11,6.87a8.62,8.62,0,0,0-2.19,2.32,3,3,0,0,0-.07,3c.9,1.4,3,1.41,4.6,1.06a18.6,18.6,0,0,0,2.64-.78,1.81,1.81,0,0,0,.92,1.62,4.18,4.18,0,0,0,3-.07A4.28,4.28,0,0,0,128.24,49a1.45,1.45,0,0,0,.54,1,2.53,2.53,0,0,0,1.94.38,4.86,4.86,0,0,0,3.21-2,2.11,2.11,0,0,0,1.12,2.34,4.41,4.41,0,0,0,2.76.35C140.22,50.85,142.68,49.15,142.78,46.74Z"/><path class="cls-20" d="M198.58,63c-.17-4.17-3.09-9.29-5.86-12.39-4.68-5.25-11.34-3.31-7.11,4.19-.09-.34-.63-.35-.86-.09a1.5,1.5,0,0,0-.21,1l.12,2.93a12.76,12.76,0,0,0-4.2-5.93,4.18,4.18,0,0,0-3.07-1.11,3.24,3.24,0,0,0-2.46,2.66,8,8,0,0,0,.12,3,3.06,3.06,0,0,0-3.42-1.91,3.11,3.11,0,0,0-2.07,4A8.18,8.18,0,0,1,168,57.05c-.49-.79-1.46-1.49-2.31-1.12a2.15,2.15,0,0,0-1,2,3.07,3.07,0,0,0,1.08,2.87c.92.58,2.49-.28,2.09-1.28l.43.17a2.47,2.47,0,1,0,4.82.71,2.38,2.38,0,0,0,4.39,1.16c-.4,2.5,1.95,4.79,4.46,5.3a3.42,3.42,0,0,0,2.52-.27,1.73,1.73,0,0,0,.77-1.84,10.09,10.09,0,0,0,4.54,5,6.27,6.27,0,0,0,6.85-.74C198.25,67.48,198.67,65.14,198.58,63Z"/><path class="cls-20" d="M146.46,48.87a4.42,4.42,0,0,0-2.55,2.82c-.19.51-.25,1.27.22,1.42l.45-.13a1.23,1.23,0,0,0,1.45.77,3.69,3.69,0,0,0,1.58-1,3.37,3.37,0,0,0,1.3-1.93A1.94,1.94,0,0,0,146.46,48.87Z"/><path class="cls-20" d="M163.53,56.28a1.58,1.58,0,0,0-2.05-1c-.09.74-.19,1.49-.28,2.24l-.22-.88a1.36,1.36,0,0,0,1.33,1.77A1.73,1.73,0,0,0,163.53,56.28Z"/><path class="cls-15" d="M202.51,93.81c.76-20-9.25-3.38-9.25-3.38a96.54,96.54,0,0,1-7.88,45.18C188.74,132.68,201.5,119.89,202.51,93.81Z"/><path class="cls-15" d="M210.24,90.7c.76-20-17.43-7.08-17.43-7.08s8.51,26.23-1.8,49.21C194.38,129.9,209.24,116.79,210.24,90.7Z"/></g></g><path class="cls-21" d="M164.23,120.9c-5.54,1.91-8.54-7.37-4.5-13.08C167.6,99.35,174.8,117.61,164.23,120.9Z"/><path class="cls-21" d="M163.91,106s-2.92,0-4.25-3.57c0,0-.38,3.22,1.71,4.43a2.86,2.86,0,0,1-2.5-1.9,3.76,3.76,0,0,0,2.11,3.34l2.11-.94Z"/><path class="cls-21" d="M119.57,108.93c-5.54,1.91-8.54-7.37-4.5-13.08C122.93,87.38,130.14,105.64,119.57,108.93Z"/><path class="cls-21" d="M119.25,94s-2.93,0-4.25-3.58c0,0-.38,3.22,1.7,4.43a2.85,2.85,0,0,1-2.49-1.9,3.76,3.76,0,0,0,2.11,3.34l2.1-.93Z"/><path class="cls-22" d="M112,81.24a17.8,17.8,0,0,1,6-2.26,11.52,11.52,0,0,1,6.49.81,13.35,13.35,0,0,1,5.1,4.13,22.24,22.24,0,0,1,3.15,5.7.85.85,0,0,1-.48,1.1.86.86,0,0,1-1.11-.48v0h0a21,21,0,0,0-2.74-5.38A11.92,11.92,0,0,0,124,81a10.22,10.22,0,0,0-5.8-.91A16.78,16.78,0,0,0,112.46,82h0a.45.45,0,0,1-.58-.18A.43.43,0,0,1,112,81.24Z"/><path class="cls-22" d="M178.47,99.67a17.14,17.14,0,0,0-4-4.57A10.37,10.37,0,0,0,169,93a12,12,0,0,0-5.79,1.13,21,21,0,0,0-5.07,3.29h0a.86.86,0,0,1-1.2-.09.84.84,0,0,1,.09-1.2l0,0a22.11,22.11,0,0,1,5.58-3.36,13.39,13.39,0,0,1,6.48-1,11.48,11.48,0,0,1,6,2.54,17.81,17.81,0,0,1,4.1,5,.42.42,0,0,1-.15.58.44.44,0,0,1-.58-.14Z"/><path class="cls-23" d="M145.22,128.3A24.66,24.66,0,0,1,127,123.41a30.82,30.82,0,0,0,4,14.74C130.47,138.83,144.77,141.64,145.22,128.3Z"/><path class="cls-24" d="M137.8,128.15A24.58,24.58,0,0,1,127,123.41a29,29,0,0,0,1.22,8.1C130.75,130.46,134.41,128.77,137.8,128.15Z"/><g id="_Group_2" data-name="&lt;Group&gt;"><path class="cls-12" d="M150.94,229.52c3.12,0,6-4,6.32-7.05l.43-3.72a4.94,4.94,0,0,0-5-5.63h-23a4.94,4.94,0,0,0-5,5.63l.43,3.72c.36,3.1,3.2,7.05,6.32,7.05Z"/><path class="cls-25" d="M139.09,217.93v6.95a1.42,1.42,0,0,0,1.41,1.42h1.59"/><line class="cls-25" x1="141.92" y1="216.23" x2="141.92" y2="216.23"/><line class="cls-26" x1="141.92" y1="217.91" x2="141.92" y2="223.76"/><line class="cls-25" x1="141.92" y1="224.6" x2="141.92" y2="224.6"/><path id="SVGID-2" data-name="SVGID" class="cls-4" d="M127.44,186.51a7.4,7.4,0,0,1-.16,4.09l-3.43,13.59L123,217.51h36.65l-.86-13.32-3.43-13.6a7.36,7.36,0,0,1-.16-4.08l1.68-9.92a14,14,0,0,0-.06-5.51l-1.34-5.29-1.34-5.3a3.85,3.85,0,0,0-3.53-2.75,46.81,46.81,0,0,0-18.57,0,3.84,3.84,0,0,0-3.53,2.75l-1.34,5.3-1.34,5.29a14.19,14.19,0,0,0-.07,5.51Z"/><g class="cls-27"><line class="cls-28" x1="120.38" y1="216.99" x2="162.75" y2="216.99"/><line class="cls-28" x1="120.38" y1="213.02" x2="162.75" y2="213.02"/><line class="cls-28" x1="120.38" y1="209.04" x2="162.75" y2="209.04"/><line class="cls-28" x1="120.38" y1="205.06" x2="162.75" y2="205.06"/><line class="cls-28" x1="120.38" y1="201.09" x2="162.75" y2="201.09"/><line class="cls-28" x1="120.38" y1="197.11" x2="162.75" y2="197.11"/><line class="cls-28" x1="120.38" y1="193.13" x2="162.75" y2="193.13"/><line class="cls-28" x1="120.38" y1="189.16" x2="162.75" y2="189.16"/><line class="cls-28" x1="120.38" y1="185.18" x2="162.75" y2="185.18"/><line class="cls-28" x1="120.38" y1="181.2" x2="162.75" y2="181.2"/><line class="cls-28" x1="120.38" y1="177.23" x2="162.75" y2="177.23"/><line class="cls-28" x1="120.38" y1="173.25" x2="162.75" y2="173.25"/><line class="cls-28" x1="120.38" y1="169.27" x2="162.75" y2="169.27"/><line class="cls-28" x1="120.38" y1="165.3" x2="162.75" y2="165.3"/><line class="cls-28" x1="120.38" y1="161.32" x2="162.75" y2="161.32"/></g><path class="cls-6" d="M135.08,163.16c2.31,2.24,6.88,2.86,11.18,1.26C150,163,149.47,160.48,150,158a48,48,0,0,0-17.08,0c-.21,0,.83,3,.93,3.22A5,5,0,0,0,135.08,163.16Z"/><line class="cls-29" x1="128.18" y1="224.37" x2="128.18" y2="224.37"/><path class="cls-30" d="M129.44,223.68a5.27,5.27,0,0,0,1.95-4.47"/><line class="cls-29" x1="131.38" y1="218.47" x2="131.38" y2="218.47"/><path class="cls-29" d="M126.18,223.59s3.94-.38,3.52-5.59"/><line class="cls-29" x1="154.14" y1="224.37" x2="154.14" y2="224.37"/><path class="cls-30" d="M152.88,223.68c-.95-.7-1.9-2-1.95-4.47"/><line class="cls-29" x1="150.93" y1="218.47" x2="150.93" y2="218.47"/><path class="cls-29" d="M156.14,223.59s-3.95-.38-3.52-5.59"/><rect class="cls-6" x="137.57" y="147.77" width="7.5" height="12.4"/></g><path class="cls-31" d="M175.1,121.23H79.44c-.14-13.71,0-27.55.06-41.86h98.11a39.69,39.69,0,1,0,0-79.37H60.51C39.11,0,25.44,8.89,17.75,16.35,3.41,30.25.33,47.53.26,59.59c0,5.67-.07,11.33-.11,17C0,100.08-.22,124.37.67,148.66c.12,3.52,0,7.51-.13,11.73-.1,3.11-.2,6.32-.22,9.74C.16,199.55.18,229.4.2,258.27q0,15.35,0,30.7a39.69,39.69,0,1,0,79.37,0q0-15.37,0-30.76c0-18.93,0-38.28,0-57.61H175.1a39.69,39.69,0,1,0,0-79.37Z"/><path class="cls-6" d="M90.69,114.39c2.91-2,5.36-.81,6.33.88v-1.06c1.38-.45,3.09.48,3.83,1.21a5.69,5.69,0,0,1,1.15,7.07c-1,1.53-3.25,3.13-5,1v-1.34c-.89,1.52-1.8,2.54-3.79,1.34L93,122.7a2.89,2.89,0,0,1-2.26,1.77,4.06,4.06,0,0,1-2.53-.9v0c-.08.1-.14.2-.23.3a2.34,2.34,0,0,1-3.91-.07,1.82,1.82,0,0,1,1-2.44l-4.46-.22.19-1.14,3-2.91a3.57,3.57,0,0,1,1.55-.34l-.08-.18a4.59,4.59,0,0,1,1.77-1.68,3.63,3.63,0,0,1,3.71-.15Z"/><path class="cls-32" d="M85.06,121.34a1.82,1.82,0,0,0-1,2.44,2.34,2.34,0,0,0,3.91.07,4.21,4.21,0,0,0,.78-4.53,3.62,3.62,0,0,0-5-2.25c-.93.42-2.28.46-3.19,3.71"/><path class="cls-32" d="M88.24,123.57a4.06,4.06,0,0,0,2.53.9c1.27-.13,2.54-1.29,2.91-4,.46-3.38-3-7.77-6.61-5.57a4.59,4.59,0,0,0-1.77,1.68"/><path class="cls-32" d="M93.24,123.45c2.19,1.32,3.08,0,4.06-1.82s.66-4.21-.06-5.94c-.79-1.89-3.4-3.51-6.55-1.3"/><path class="cls-32" d="M97,123.45c1.72,2.17,4,.57,5-1a5.69,5.69,0,0,0-1.15-7.07c-.74-.73-2.45-1.66-3.83-1.21"/><path class="cls-6" d="M193.39,119.34c-1.69-3.13-4.43-3.12-6.06-2l.48-1a4.3,4.3,0,0,0-4-.63,5.69,5.69,0,0,0-4.19,5.81c.19,1.8,1.5,4.25,4,3.08l.6-1.2c.11,1.76.47,3.08,2.79,2.89l.52-.57a2.9,2.9,0,0,0,1.23,2.59,4,4,0,0,0,2.66.32h0c0,.12,0,.24.06.37a2.35,2.35,0,0,0,3.54,1.69,1.83,1.83,0,0,0,.23-2.61l4.09,1.79.33-1.11-1.41-4a3.69,3.69,0,0,0-1.24-1l.15-.13a4.47,4.47,0,0,0-.82-2.29,3.66,3.66,0,0,0-3.26-1.8Z"/><path class="cls-32" d="M195.32,128.08a1.83,1.83,0,0,1-.23,2.61,2.35,2.35,0,0,1-3.54-1.69,4.21,4.21,0,0,1,1.34-4.4,3.62,3.62,0,0,1,5.44.2c.64.8,1.83,1.44,1.19,4.75"/><path class="cls-32" d="M191.47,128.64a4,4,0,0,1-2.66-.32c-1.08-.68-1.7-2.29-.8-4.9,1.1-3.23,6.11-5.64,8.41-2a4.47,4.47,0,0,1,.82,2.29"/><path class="cls-32" d="M187.06,126.3c-2.55.21-2.73-1.41-2.82-3.43s1.3-4.07,2.71-5.29,4.61-1.62,6.44,1.76"/><path class="cls-32" d="M183.67,124.61c-2.52,1.17-3.83-1.28-4-3.08a5.69,5.69,0,0,1,4.19-5.81,4.3,4.3,0,0,1,4,.63"/></svg>